<svg xmlns="http://www.w3.org/2000/svg" xmlns:xlink="http://www.w3.org/1999/xlink" viewBox="0 0 72 72"><defs><style>.cls-1{fill:url(#linear-gradient);}.cls-2{fill:url(#linear-gradient-2);}.cls-3{fill:url(#linear-gradient-3);}.cls-4{fill:url(#linear-gradient-4);}.cls-5{fill:url(#linear-gradient-5);}.cls-6{fill:url(#linear-gradient-6);}.cls-7{fill:url(#linear-gradient-7);}.cls-8{fill:url(#linear-gradient-8);}.cls-9{fill:url(#linear-gradient-9);}</style><linearGradient id="linear-gradient" x1="23" y1="27.929" x2="23" y2="45.37" gradientUnits="userSpaceOnUse"><stop offset="0" stop-color="#6fc6fc"></stop><stop offset="1" stop-color="#50a7f6"></stop></linearGradient><linearGradient id="linear-gradient-2" x1="19" y1="47.643" x2="19" y2="59.099" gradientTransform="translate(29.545 -2.265) rotate(30)" xlink:href="#linear-gradient"></linearGradient><linearGradient id="linear-gradient-3" x1="53" y1="27.929" x2="53" y2="45.37" xlink:href="#linear-gradient"></linearGradient><linearGradient id="linear-gradient-4" x1="49" y1="44" x2="49" y2="55.176" gradientTransform="translate(31.565 -17.801) rotate(30)" xlink:href="#linear-gradient"></linearGradient><linearGradient id="linear-gradient-5" x1="38" y1="14" x2="38" y2="27.348" xlink:href="#linear-gradient"></linearGradient><linearGradient id="linear-gradient-6" x1="60.143" y1="55.893" x2="60.143" y2="64.143" gradientUnits="userSpaceOnUse"><stop offset="0" stop-color="#fed200"></stop><stop offset="1" stop-color="#f59815"></stop></linearGradient><linearGradient id="linear-gradient-7" x1="11.858" y1="7.196" x2="11.858" y2="14.43" xlink:href="#linear-gradient-6"></linearGradient><linearGradient id="linear-gradient-8" x1="12" y1="37.464" x2="12" y2="43.152" gradientUnits="userSpaceOnUse"><stop offset="0" stop-color="#e3f0ff"></stop><stop offset="1" stop-color="#90d5fe"></stop></linearGradient><linearGradient id="linear-gradient-9" x1="61" y1="8.536" x2="61" y2="14.647" xlink:href="#linear-gradient-8"></linearGradient></defs><title>Music</title><g id="Music"><rect class="cls-1" x="20" y="25" width="6" height="27"></rect><ellipse class="cls-2" cx="19" cy="54" rx="7.47" ry="5.336" transform="translate(-24.454 16.735) rotate(-30)"></ellipse><rect class="cls-3" x="50" y="20" width="6" height="28.339"></rect><ellipse class="cls-4" cx="49" cy="50" rx="7.47" ry="5.336" transform="translate(-18.435 31.199) rotate(-30)"></ellipse><path class="cls-5" d="M56,26,20,30V20.58a4,4,0,0,1,3.558-3.975l30.221-3.358A2,2,0,0,1,56,15.235Z"></path><path class="cls-6" d="M58.917,62.763l-1.686.033a.926.926,0,0,1-.888-1.244l.578-1.584-.552-1.593a.926.926,0,0,1,.908-1.229l1.685.06,1.345-1.018a.927.927,0,0,1,1.45.484l.463,1.622,1.384.965a.927.927,0,0,1-.013,1.528l-1.4.942-.49,1.613a.926.926,0,0,1-1.457.461Z"></path><path class="cls-7" d="M13.086,14.761,11.758,15.8a.926.926,0,0,1-1.457-.459L9.809,13.73l-1.4-.941A.926.926,0,0,1,8.4,11.261L9.778,10.3l.462-1.622a.926.926,0,0,1,1.449-.485L13.035,9.2l1.685-.062a.927.927,0,0,1,.91,1.228l-.551,1.594.58,1.584a.927.927,0,0,1-.887,1.244Z"></path><path class="cls-8" d="M14.643,40.352a3.173,3.173,0,0,1-2.174-2.174.487.487,0,0,0-.939,0,3.174,3.174,0,0,1-2.173,2.174.487.487,0,0,0,0,.939,3.173,3.173,0,0,1,2.174,2.174.488.488,0,0,0,.939,0,3.173,3.173,0,0,1,2.174-2.174.488.488,0,0,0,0-.939Z"></path><path class="cls-9" d="M63.644,11.352A3.173,3.173,0,0,1,61.47,9.178a.487.487,0,0,0-.939,0,3.173,3.173,0,0,1-2.174,2.174.488.488,0,0,0,0,.939,3.173,3.173,0,0,1,2.174,2.174.488.488,0,0,0,.939,0,3.174,3.174,0,0,1,2.173-2.174.487.487,0,0,0,0-.939Z"></path></g></svg>